<svg xmlns="http://www.w3.org/2000/svg" xmlns:xlink="http://www.w3.org/1999/xlink" viewBox="0 0 1666 1092"><style>.st2,.st3{fill:none;stroke:#000;stroke-width:10;stroke-miterlimit:10}.st3{stroke-width:12}</style><g id="Layer_2"><g id="_x32_XSMuz.tif"><image width="212" height="145" id="Layer_1_1_" xlink:href="AEC1AF01FCC9630B.png" transform="translate(759.058 371.047)" overflow="visible"/></g></g><g id="Layer_4"><path class="st2" d="M1306.8 141.5s-7.6 6.1 6.9 13.7 82.6 48.3 82.6 48.3 13.7 4.6 14.8-1.5c1.1-6.1-.8-6.1-8.4-10.3-7.6-4.2-79.9-48.3-79.9-48.3s-10.7-4.6-16-1.9zM184.4 874s-7.8-5.3-6.9 4.4c.9 9.7 2.5 12.1 6.9 14.3 4.4 2.2 44.9 33.7 44.9 33.7s6.6 6.4 8-1.7c1.4-7.9 3.5-11.5-1.6-15.6S184.4 874 184.4 874zM25.6 779.2c-3-10.9.7-25 9.7-22.6 17.8 4.6 20.3 17.6 21.3 25.4 1.4 11.9.1 22.5-11.6 20.8-9.3-1.4-16.2-12.1-19.4-23.6zM75.4 605.3L608 977.5l-6.5 79.1"/><path class="st3" d="M2.8 688.1l.2-9.4M1668.3 283.4s.1 22.1-3.7 62.3c-3.8 40.3-26.4 55.4-26.4 55.4s-21.2 13.6-57.6 36.8M2.8 688.1L.5 773.3s-1.6 12.8 21 32.9c22.6 20.1 362.3 255.4 362.3 255.4s104.4 60.4 217.7-5c96.1-55.5 775.5-488.7 979.1-618.7"/><path class="st3" d="M1581.9 361l52.2-33.1s69.7-42.9 10-78.9S1251 16 1251 16s-63.6-42.9-151.7 6.9c-8.2 4.7-23.9 13.5-45.5 25.8M2.8 688.1c-.3-3.2-.2-6.4.3-9.4M2.8 688.1c1.3 15.2 11.2 31.6 35.1 48.2 97.3 67.4 357.9 248.3 357.9 248.3s90.4 76.2 212.3-7.1L1581.9 361M3 678.7c5.9-42 72.4-73.4 72.4-73.4s768.8-437.6 978.3-556.6M1581.9 361L1053.7 48.7M1581.9 361l-1.3 76.9"/></g></svg>